<svg id="visual" viewBox="0 0 900 600" width="900" height="600" xmlns="http://www.w3.org/2000/svg" xmlns:xlink="http://www.w3.org/1999/xlink" version="1.1"><path d="M0 163L13.7 155C27.3 147 54.7 131 82 138C109.3 145 136.7 175 163.8 175C191 175 218 145 245.2 155C272.3 165 299.7 215 327 223C354.3 231 381.7 197 409 180C436.3 163 463.7 163 491 156C518.3 149 545.7 135 573 148C600.3 161 627.7 201 654.8 205C682 209 709 177 736.2 176C763.3 175 790.7 205 818 198C845.3 191 872.7 147 886.3 125L900 103L900 0L886.3 0C872.7 0 845.3 0 818 0C790.7 0 763.3 0 736.2 0C709 0 682 0 654.8 0C627.7 0 600.3 0 573 0C545.7 0 518.3 0 491 0C463.7 0 436.3 0 409 0C381.7 0 354.3 0 327 0C299.7 0 272.3 0 245.2 0C218 0 191 0 163.8 0C136.7 0 109.3 0 82 0C54.7 0 27.3 0 13.7 0L0 0Z" fill="#6198ff"></path><path d="M0 265L13.7 248C27.3 231 54.7 197 82 202C109.3 207 136.7 251 163.8 256C191 261 218 227 245.2 233C272.3 239 299.7 285 327 291C354.3 297 381.7 263 409 247C436.3 231 463.7 233 491 228C518.3 223 545.7 211 573 223C600.3 235 627.7 271 654.8 277C682 283 709 259 736.2 263C763.3 267 790.7 299 818 289C845.3 279 872.7 227 886.3 201L900 175L900 101L886.3 123C872.7 145 845.3 189 818 196C790.7 203 763.3 173 736.2 174C709 175 682 207 654.8 203C627.7 199 600.3 159 573 146C545.7 133 518.3 147 491 154C463.7 161 436.3 161 409 178C381.7 195 354.3 229 327 221C299.7 213 272.3 163 245.2 153C218 143 191 173 163.8 173C136.7 173 109.3 143 82 136C54.7 129 27.3 145 13.7 153L0 161Z" fill="#3c80ff"></path><path d="M0 379L13.7 357C27.3 335 54.7 291 82 291C109.3 291 136.7 335 163.8 338C191 341 218 303 245.2 309C272.3 315 299.7 365 327 368C354.3 371 381.7 327 409 318C436.3 309 463.7 335 491 340C518.3 345 545.7 329 573 335C600.3 341 627.7 369 654.8 376C682 383 709 369 736.2 376C763.3 383 790.7 411 818 399C845.3 387 872.7 335 886.3 309L900 283L900 173L886.3 199C872.7 225 845.3 277 818 287C790.7 297 763.3 265 736.2 261C709 257 682 281 654.8 275C627.7 269 600.3 233 573 221C545.7 209 518.3 221 491 226C463.7 231 436.3 229 409 245C381.7 261 354.3 295 327 289C299.7 283 272.3 237 245.2 231C218 225 191 259 163.8 254C136.7 249 109.3 205 82 200C54.7 195 27.3 229 13.7 246L0 263Z" fill="#0066ff"></path><path d="M0 481L13.7 481C27.3 481 54.7 481 82 489C109.3 497 136.7 513 163.8 507C191 501 218 473 245.2 471C272.3 469 299.7 493 327 501C354.3 509 381.7 501 409 506C436.3 511 463.7 529 491 537C518.3 545 545.7 543 573 540C600.3 537 627.7 533 654.8 534C682 535 709 541 736.2 545C763.3 549 790.7 551 818 541C845.3 531 872.7 509 886.3 498L900 487L900 281L886.3 307C872.7 333 845.3 385 818 397C790.7 409 763.3 381 736.2 374C709 367 682 381 654.8 374C627.7 367 600.3 339 573 333C545.7 327 518.3 343 491 338C463.7 333 436.3 307 409 316C381.7 325 354.3 369 327 366C299.7 363 272.3 313 245.2 307C218 301 191 339 163.8 336C136.7 333 109.3 289 82 289C54.7 289 27.3 333 13.7 355L0 377Z" fill="#0059dd"></path><path d="M0 601L13.7 601C27.3 601 54.7 601 82 601C109.3 601 136.7 601 163.8 601C191 601 218 601 245.2 601C272.3 601 299.7 601 327 601C354.3 601 381.7 601 409 601C436.3 601 463.7 601 491 601C518.3 601 545.7 601 573 601C600.3 601 627.7 601 654.8 601C682 601 709 601 736.2 601C763.3 601 790.7 601 818 601C845.3 601 872.7 601 886.3 601L900 601L900 485L886.3 496C872.7 507 845.3 529 818 539C790.7 549 763.3 547 736.2 543C709 539 682 533 654.8 532C627.7 531 600.3 535 573 538C545.7 541 518.3 543 491 535C463.7 527 436.3 509 409 504C381.7 499 354.3 507 327 499C299.7 491 272.3 467 245.2 469C218 471 191 499 163.8 505C136.7 511 109.3 495 82 487C54.7 479 27.3 479 13.7 479L0 479Z" fill="#004cbb"></path></svg>